<svg width="25" height="25" viewBox="0 0 25 25" fill="none" xmlns="http://www.w3.org/2000/svg">
<path d="M19.7916 17.7083C19.5154 17.7083 19.2504 17.5986 19.0551 17.4032C18.8597 17.2079 18.75 16.9429 18.75 16.6667C18.75 16.3904 18.8597 16.1254 19.0551 15.9301C19.2504 15.7347 19.5154 15.625 19.7916 15.625C20.0679 15.625 20.3329 15.5153 20.5282 15.3199C20.7236 15.1246 20.8333 14.8596 20.8333 14.5833V6.25C20.8333 5.97373 20.7236 5.70878 20.5282 5.51343C20.3329 5.31808 20.0679 5.20833 19.7916 5.20833H5.20831C4.93205 5.20833 4.66709 5.31808 4.47174 5.51343C4.27639 5.70878 4.16665 5.97373 4.16665 6.25V14.5833C4.16665 14.8596 4.27639 15.1246 4.47174 15.3199C4.66709 15.5153 4.93205 15.625 5.20831 15.625H15.625C15.9012 15.625 16.1662 15.7347 16.3616 15.9301C16.5569 16.1254 16.6666 16.3904 16.6666 16.6667C16.6666 16.9429 16.5569 17.2079 16.3616 17.4032C16.1662 17.5986 15.9012 17.7083 15.625 17.7083H5.20831C4.37951 17.7083 3.58466 17.3791 2.9986 16.793C2.41255 16.207 2.08331 15.4121 2.08331 14.5833V6.25C2.08331 5.4212 2.41255 4.62634 2.9986 4.04029C3.58466 3.45424 4.37951 3.125 5.20831 3.125H19.7916C20.6204 3.125 21.4153 3.45424 22.0014 4.04029C22.5874 4.62634 22.9166 5.4212 22.9166 6.25V14.5833C22.9166 15.4121 22.5874 16.207 22.0014 16.793C21.4153 17.3791 20.6204 17.7083 19.7916 17.7083V17.7083Z" fill="white"/>
<path d="M16.9688 9.07294C16.7784 8.87332 16.6705 8.60915 16.6667 8.33335V8.33335C16.6705 8.05755 16.7784 7.79339 16.9688 7.59377V7.59377C17.1684 7.40342 17.4326 7.29552 17.7084 7.29169C17.9842 7.29552 18.2483 7.40342 18.4479 7.59377V7.59377C18.6383 7.79339 18.7462 8.05755 18.75 8.33335V8.33335C18.7462 8.60915 18.6383 8.87332 18.4479 9.07294V9.07294C18.2483 9.26328 17.9842 9.37118 17.7084 9.37502C17.4326 9.37118 17.1684 9.26328 16.9688 9.07294Z" fill="white"/>
<path d="M17.7083 13.5416H7.29167C7.0154 13.5416 6.75045 13.4319 6.5551 13.2365C6.35975 13.0412 6.25 12.7762 6.25 12.5C6.25 12.2237 6.35975 11.9588 6.5551 11.7634C6.75045 11.5681 7.0154 11.4583 7.29167 11.4583H17.7083C17.9846 11.4583 18.2496 11.5681 18.4449 11.7634C18.6403 11.9588 18.75 12.2237 18.75 12.5C18.75 12.7762 18.6403 13.0412 18.4449 13.2365C18.2496 13.4319 17.9846 13.5416 17.7083 13.5416Z" fill="white"/>
<path d="M8.33335 22.9167C8.05709 22.9167 7.79213 22.8069 7.59678 22.6116C7.40143 22.4162 7.29169 22.1513 7.29169 21.875V19.7917C7.29169 19.5154 7.40143 19.2504 7.59678 19.0551C7.79213 18.8597 8.05709 18.75 8.33335 18.75C8.60962 18.75 8.87457 18.8597 9.06992 19.0551C9.26527 19.2504 9.37502 19.5154 9.37502 19.7917V21.875C9.37502 22.1513 9.26527 22.4162 9.06992 22.6116C8.87457 22.8069 8.60962 22.9167 8.33335 22.9167V22.9167Z" fill="white"/>
<path d="M12.5 22.9167C12.2237 22.9167 11.9588 22.8069 11.7634 22.6116C11.5681 22.4162 11.4583 22.1513 11.4583 21.875V19.7917C11.4583 19.5154 11.5681 19.2504 11.7634 19.0551C11.9588 18.8597 12.2237 18.75 12.5 18.75C12.7762 18.75 13.0412 18.8597 13.2365 19.0551C13.4319 19.2504 13.5416 19.5154 13.5416 19.7917V21.875C13.5416 22.1513 13.4319 22.4162 13.2365 22.6116C13.0412 22.8069 12.7762 22.9167 12.5 22.9167Z" fill="white"/>
<path d="M16.6667 22.9167C16.3904 22.9167 16.1254 22.8069 15.9301 22.6116C15.7347 22.4162 15.625 22.1513 15.625 21.875V19.7917C15.625 19.5154 15.7347 19.2504 15.9301 19.0551C16.1254 18.8597 16.3904 18.75 16.6667 18.75C16.9429 18.75 17.2079 18.8597 17.4032 19.0551C17.5986 19.2504 17.7083 19.5154 17.7083 19.7917V21.875C17.7083 22.1513 17.5986 22.4162 17.4032 22.6116C17.2079 22.8069 16.9429 22.9167 16.6667 22.9167Z" fill="white"/>
</svg>
