<svg width="20" height="20" viewBox="0 0 20 20" fill="none" xmlns="http://www.w3.org/2000/svg">
<path d="M19 10.9375H18.3333H5.0035C5.00283 10.9375 5.00217 10.9375 5.0015 10.9375H1.66667H1C0.448583 10.9375 0 11.3581 0 11.875C0 12.0476 0.14925 12.1875 0.333333 12.1875C0.517417 12.1875 0.666667 12.0476 0.666667 11.875C0.666667 11.7027 0.816208 11.5625 1 11.5625H1.27317L0.499292 15.9157C0.382208 16.5745 0.519542 17.2527 0.886042 17.8253L1.33333 18.5241V19.6484C1.33333 19.8423 1.50158 20 1.70833 20H18.2917C18.4984 20 18.6667 19.8423 18.6667 19.6484V18.5241L19.114 17.8253C19.4805 17.2527 19.6178 16.5745 19.5007 15.9157L18.7268 11.5625H19C19.1838 11.5625 19.3333 11.7027 19.3333 11.875C19.3333 12.0476 19.4826 12.1875 19.6667 12.1875C19.8508 12.1875 20 12.0476 20 11.875C20 11.3581 19.5514 10.9375 19 10.9375ZM16.8756 17.5037L16.478 18.125H15.4924L15.7279 17.573C15.9106 17.1448 15.9785 16.6762 15.9241 16.2178L15.3724 11.5625H16.3843L17.1765 16.0185C17.2675 16.5309 17.1607 17.0583 16.8756 17.5037ZM13.7751 18.125L13.9974 17.3949C14.0961 17.071 14.1317 16.7365 14.1033 16.4005L13.6941 11.5625H14.7016L15.2615 16.2868C15.3038 16.6434 15.251 17.0079 15.1089 17.3409L14.7743 18.125H13.7751ZM12.0193 18.125L12.0879 16.9823C12.0919 16.9155 12.0933 16.8476 12.0922 16.7805L12.0053 11.5625H13.0254L13.4387 16.45C13.4608 16.7112 13.4331 16.9714 13.3564 17.2233L13.0818 18.125H12.0193ZM10.3333 18.125V11.5625H11.3385L11.4256 16.7902C11.4265 16.8425 11.4254 16.8953 11.4223 16.9473L11.3516 18.125H10.3333ZM8.64646 18.125L8.56846 16.9553C8.56463 16.8973 8.56321 16.8387 8.56429 16.7808L8.66096 11.5625H9.66667V18.125H8.64646ZM3.52204 18.125L3.12438 17.5037C2.83933 17.0584 2.7325 16.5309 2.82354 16.0185L3.61571 11.5625H4.62758L4.07583 16.2178C4.0215 16.6762 4.08938 17.1448 4.27208 17.573L4.50758 18.125H3.52204ZM5.22567 18.125L4.89108 17.3409C4.74896 17.0079 4.69617 16.6434 4.73842 16.2869L5.29837 11.5625H6.30567L5.89383 16.3973C5.86504 16.7355 5.90112 17.0723 6.00112 17.3983L6.224 18.125H5.22567ZM6.91767 18.125L6.64183 17.2256C6.56404 16.972 6.53596 16.7101 6.55838 16.447L6.97446 11.5625H7.99417L7.89775 16.77C7.89633 16.8443 7.89817 16.9197 7.90313 16.9943L7.97854 18.125H6.91767V18.125ZM1.15688 16.0185L1.94904 11.5625H2.93988L2.16596 15.9157C2.04888 16.5745 2.18621 17.2527 2.55271 17.8253L2.74454 18.125H1.85538L1.45771 17.5037C1.17267 17.0583 1.06583 16.5309 1.15688 16.0185ZM18 19.375H2V18.75H3.333C3.33321 18.75 3.33342 18.75 3.33363 18.75C3.33383 18.75 3.33404 18.75 3.33425 18.75H4.999C4.99938 18.75 4.99971 18.7501 5.00008 18.7501C5.00067 18.7501 5.00125 18.75 5.00183 18.75H6.6655C6.66583 18.75 6.66617 18.7501 6.6665 18.7501C6.66688 18.7501 6.66729 18.75 6.66767 18.75H13.3323C13.3327 18.75 13.3331 18.7501 13.3335 18.7501C13.3338 18.7501 13.3342 18.75 13.3345 18.75H14.9982C14.9988 18.75 14.9993 18.7501 14.9999 18.7501C15.0003 18.7501 15.0006 18.75 15.001 18.75H16.6658C16.666 18.75 16.6662 18.75 16.6664 18.75C16.6666 18.75 16.6668 18.75 16.667 18.75H18V19.375ZM18.5423 17.5037L18.1446 18.125H17.2555L17.4473 17.8253C17.8138 17.2527 17.9511 16.5745 17.834 15.9157L17.0602 11.5625H18.051L18.8431 16.0185C18.9342 16.5309 18.8273 17.0583 18.5423 17.5037Z" fill="white"/>
<path d="M3.66671 10.3125C3.85079 10.3125 4.00004 10.1726 4.00004 10V0.625H16V10C16 10.1726 16.1493 10.3125 16.3334 10.3125C16.5175 10.3125 16.6667 10.1726 16.6667 10V0.625C16.6667 0.280391 16.3676 0 16 0H4.00004C3.63246 0 3.33337 0.280391 3.33337 0.625V10C3.33337 10.1726 3.48262 10.3125 3.66671 10.3125Z" fill="white"/>
<path d="M15 10.3125C15.184 10.3125 15.3333 10.1726 15.3333 10V1.5625C15.3333 1.38992 15.184 1.25 15 1.25H4.99996C4.81588 1.25 4.66663 1.38992 4.66663 1.5625V10C4.66663 10.1726 4.81588 10.3125 4.99996 10.3125C5.18404 10.3125 5.33329 10.1726 5.33329 10V5.3125H8.66658C8.85067 5.3125 8.99992 5.17258 8.99992 5C8.99992 4.82742 8.85067 4.6875 8.66658 4.6875H5.33329V1.875H9.66663V10C9.66663 10.1726 9.81588 10.3125 9.99996 10.3125C10.184 10.3125 10.3333 10.1726 10.3333 10V5.3125H14.6666V10C14.6666 10.1726 14.8159 10.3125 15 10.3125ZM10.3333 4.6875V1.875H14.6666V4.6875H10.3333Z" fill="white"/>
</svg>
