<svg width="16" height="25" viewBox="0 0 16 25" fill="none" xmlns="http://www.w3.org/2000/svg">
<path d="M14.6667 25H1.33333C0.598 25 0 24.4099 0 23.6842V1.31579C0 0.590132 0.598 0 1.33333 0H14.6667C15.402 0 16 0.590132 16 1.31579V23.6842C16 24.4099 15.402 25 14.6667 25ZM1.33333 0.877193C1.08822 0.877193 0.888889 1.0739 0.888889 1.31579V23.6842C0.888889 23.9261 1.08822 24.1228 1.33333 24.1228H14.6667C14.9118 24.1228 15.1111 23.9261 15.1111 23.6842V1.31579C15.1111 1.0739 14.9118 0.877193 14.6667 0.877193H1.33333Z" fill="white"/>
<path d="M15.5556 12.0614H0.444519V12.9386H15.5556V12.0614Z" fill="white"/>
<path d="M13.7778 17.3246C13.5325 17.3246 13.3334 17.1281 13.3334 16.886V14.693C13.3334 14.4509 13.5325 14.2544 13.7778 14.2544C14.0232 14.2544 14.2223 14.4509 14.2223 14.693V16.886C14.2223 17.1281 14.0232 17.3246 13.7778 17.3246Z" fill="white"/>
<path d="M7.99999 9.42984C7.75465 9.42984 7.55554 9.23335 7.55554 8.99124V3.28949C7.55554 3.04738 7.75465 2.85089 7.99999 2.85089C8.24532 2.85089 8.44443 3.04738 8.44443 3.28949V8.99124C8.44443 9.23335 8.24532 9.42984 7.99999 9.42984Z" fill="white"/>
<path d="M10.5016 8.00442C10.4263 8.00442 10.3498 7.98556 10.2798 7.94565L5.27581 5.09477C5.06314 4.9735 4.99047 4.70552 5.11314 4.49565C5.23603 4.286 5.50692 4.21385 5.72025 4.33512L10.7243 7.186C10.9369 7.30727 11.0096 7.57526 10.8869 7.78512C10.8045 7.92591 10.6551 8.00442 10.5016 8.00442Z" fill="white"/>
<path d="M5.49847 8.00442C5.34492 8.00442 5.19559 7.92591 5.11314 7.78512C4.99047 7.57526 5.06314 7.30705 5.27581 7.186L10.2798 4.33512C10.4927 4.21385 10.764 4.286 10.8869 4.49565C11.0096 4.70552 10.9369 4.97372 10.7243 5.09477L5.72025 7.94565C5.65025 7.98556 5.57381 8.00442 5.49847 8.00442Z" fill="white"/>
</svg>
