<svg width="25" height="25" viewBox="0 0 25 25" fill="none" xmlns="http://www.w3.org/2000/svg">
<path d="M20.7584 0C18.6775 0 17.253 1.55161 15.8126 3.4766C14.6143 2.17594 13.1203 1.4251 11.5615 1.34003C10.2122 1.20376 8.8687 1.68504 7.7629 2.7008L7.29445 2.07434L6.04206 3.73382L16.4372 17.2585L17.6928 15.624L17.2243 15.0141C18.0034 13.5738 18.3729 11.8253 18.2696 10.0689C18.2074 8.34275 17.7649 6.67642 16.9949 5.26884C18.2282 3.60936 19.3085 2.48506 20.7521 2.48506H25V0H20.7584ZM16.4372 16.0845L6.94391 3.73382L7.29764 3.27332L16.7909 15.6281L16.4372 16.0845ZM16.7559 14.425L8.22179 3.29821C9.19729 2.45037 10.3635 2.05436 11.5328 2.17391C13.1163 2.25478 14.621 3.09392 15.7584 4.53037L15.8094 4.59675C16.9211 6.07726 17.5716 8.04169 17.6354 10.1104C17.7254 11.6336 17.419 13.1519 16.7655 14.4208L16.7559 14.425ZM24.3627 1.65948H20.7584C19.1077 1.65948 17.9382 2.85015 16.6157 4.56356L16.2683 4.07401C17.6131 2.29422 18.9133 0.817291 20.7298 0.817291H24.3627V1.65948ZM9.43276 14.4167C9.73366 14.4167 10.0252 14.2808 10.2578 14.0322C10.4904 13.7837 10.6495 13.4378 10.7081 13.0535C10.7666 12.6693 10.721 12.2705 10.579 11.9251C10.437 11.5798 10.2074 11.3092 9.92927 11.1596C9.65117 11.0101 9.34183 10.9907 9.05397 11.1048C8.76612 11.2189 8.51759 11.4595 8.35074 11.7855C8.1839 12.1115 8.10907 12.5027 8.13902 12.8925C8.16896 13.2823 8.30184 13.6465 8.51498 13.923C8.63555 14.0797 8.77866 14.204 8.93614 14.2887C9.09361 14.3734 9.26237 14.4169 9.43276 14.4167V14.4167ZM8.96431 12.1142C9.05698 11.9934 9.17508 11.9111 9.30368 11.8777C9.43228 11.8444 9.56559 11.8614 9.68675 11.9267C9.80791 11.992 9.91148 12.1026 9.98434 12.2445C10.0572 12.3864 10.0961 12.5533 10.0961 12.724C10.0961 12.8947 10.0572 13.0616 9.98434 13.2035C9.91148 13.3455 9.80791 13.4561 9.68675 13.5214C9.56559 13.5866 9.43228 13.6037 9.30368 13.5703C9.17508 13.5369 9.05698 13.4547 8.96431 13.3339C8.90245 13.254 8.85335 13.159 8.81984 13.0544C8.78634 12.9497 8.76908 12.8374 8.76908 12.724C8.76908 12.6106 8.78634 12.4984 8.81984 12.3937C8.85335 12.289 8.90245 12.194 8.96431 12.1142ZM7.77246 17.2834C7.98473 17.0061 8.1166 16.6416 8.14562 16.252C8.17465 15.8623 8.09902 15.4716 7.93163 15.1464C7.76424 14.8212 7.51544 14.5815 7.22758 14.4683C6.93973 14.3551 6.63062 14.3752 6.3529 14.5254C6.07518 14.6755 5.84602 14.9463 5.70444 15.2917C5.56286 15.637 5.51761 16.0356 5.5764 16.4196C5.63519 16.8035 5.79439 17.149 6.02688 17.3973C6.25937 17.6456 6.55079 17.7813 6.8515 17.7813C7.19704 17.7808 7.5283 17.6018 7.77246 17.2834ZM6.38304 15.4746C6.4438 15.3902 6.51697 15.3225 6.59822 15.2756C6.67946 15.2288 6.76712 15.2036 6.85597 15.2018C6.94482 15.1999 7.03306 15.2213 7.11544 15.2647C7.19781 15.3081 7.27264 15.3726 7.33548 15.4544C7.39832 15.5362 7.44788 15.6336 7.48121 15.7409C7.51455 15.8481 7.53098 15.963 7.52953 16.0786C7.52808 16.1943 7.50878 16.3084 7.47278 16.4142C7.43677 16.52 7.3848 16.6152 7.31995 16.6943C7.1937 16.8511 7.02595 16.9385 6.8515 16.9385C6.67704 16.9385 6.50929 16.8511 6.38304 16.6943C6.25889 16.5325 6.18915 16.3132 6.18915 16.0845C6.18915 15.8558 6.25889 15.6364 6.38304 15.4746V15.4746ZM3.34926 18.2542C3.16743 18.491 3.0436 18.7926 2.99343 19.1209C2.94326 19.4492 2.96901 19.7896 3.06742 20.0989C3.16583 20.4082 3.33248 20.6725 3.54629 20.8585C3.76011 21.0445 4.01149 21.1438 4.26864 21.1438C4.52579 21.1438 4.77717 21.0445 4.99099 20.8585C5.2048 20.6725 5.37145 20.4082 5.46986 20.0989C5.56827 19.7896 5.59402 19.4492 5.54385 19.1209C5.49368 18.7926 5.36985 18.491 5.18802 18.2542C5.06793 18.0956 4.92481 17.9695 4.76697 17.8835C4.60914 17.7975 4.43974 17.7532 4.26864 17.7532C4.09754 17.7532 3.92814 17.7975 3.77031 17.8835C3.61247 17.9695 3.46935 18.0956 3.34926 18.2542V18.2542ZM4.73868 20.0631C4.63239 20.207 4.49104 20.2986 4.33872 20.322C4.18639 20.3455 4.03253 20.2995 3.90335 20.1918C3.77418 20.0841 3.67769 19.9215 3.63033 19.7315C3.58297 19.5416 3.58768 19.3362 3.64364 19.1502C3.69961 18.9643 3.80337 18.8094 3.93725 18.7119C4.07112 18.6145 4.22682 18.5805 4.3778 18.6157C4.52878 18.651 4.66569 18.7533 4.7652 18.9053C4.86471 19.0572 4.92066 19.2494 4.92352 19.4491C4.92593 19.6761 4.85952 19.8952 4.73868 20.0589V20.0631ZM6.4659 10.5543C6.76666 10.5533 7.05787 10.4166 7.28992 10.1675C7.52196 9.9184 7.68049 9.57226 7.73849 9.18805C7.7965 8.80385 7.7504 8.40535 7.60804 8.06043C7.46568 7.71552 7.23587 7.44552 6.95776 7.29643C6.67965 7.14735 6.37043 7.1284 6.0828 7.24281C5.79516 7.35723 5.54688 7.59792 5.38026 7.9239C5.21364 8.24988 5.13899 8.64098 5.16901 9.03058C5.19904 9.42018 5.33189 9.78418 5.54493 10.0606C5.78896 10.3756 6.11905 10.5517 6.46271 10.5501L6.4659 10.5543ZM5.99745 8.25174C6.10595 8.11064 6.24867 8.02289 6.4013 8.00343C6.55393 7.98397 6.70702 8.03401 6.83448 8.14503C6.96194 8.25605 7.05589 8.42117 7.10032 8.61226C7.14475 8.80335 7.1369 9.00858 7.07812 9.19299C7.01934 9.37739 6.91327 9.52956 6.77797 9.62355C6.64267 9.71755 6.48652 9.74756 6.33613 9.70848C6.18574 9.66939 6.05041 9.56362 5.95321 9.4092C5.85601 9.25478 5.80294 9.06125 5.80306 8.8616C5.80228 8.7479 5.81878 8.63513 5.85159 8.52976C5.8844 8.42438 5.93289 8.32849 5.99426 8.24759L5.99745 8.25174ZM4.79923 13.4169C5.01309 13.14 5.14657 12.7751 5.17691 12.3844C5.20725 11.9937 5.13257 11.6015 4.96561 11.2745C4.79864 10.9474 4.54973 10.7059 4.2613 10.5911C3.97287 10.4763 3.66278 10.4952 3.38388 10.6447C3.10498 10.7942 2.87454 11.065 2.73185 11.411C2.58915 11.7569 2.54304 12.1566 2.60136 12.5418C2.65968 12.9271 2.81883 13.2741 3.05167 13.5237C3.28452 13.7733 3.57665 13.91 3.87826 13.9106C4.22335 13.9112 4.55455 13.7337 4.79923 13.4169V13.4169ZM3.413 11.6163C3.50567 11.4956 3.62378 11.4133 3.75238 11.3799C3.88097 11.3465 4.01429 11.3636 4.13544 11.4289C4.2566 11.4941 4.36017 11.6047 4.43303 11.7467C4.5059 11.8886 4.54479 12.0555 4.54479 12.2262C4.54479 12.3969 4.5059 12.5638 4.43303 12.7057C4.36017 12.8476 4.2566 12.9582 4.13544 13.0235C4.01429 13.0888 3.88097 13.1058 3.75238 13.0725C3.62378 13.0391 3.50567 12.9568 3.413 12.836C3.28884 12.6742 3.21911 12.4549 3.21911 12.2262C3.21911 11.9975 3.28884 11.7781 3.413 11.6163V11.6163ZM1.30019 13.8981C0.999479 13.8981 0.708066 14.0338 0.475574 14.2821C0.243082 14.5304 0.083886 14.8759 0.0250939 15.2598C-0.0336982 15.6438 0.0115492 16.0424 0.153131 16.3877C0.294713 16.7331 0.523875 17.0039 0.801595 17.154C1.07932 17.3042 1.38842 17.3243 1.67628 17.2111C1.96413 17.0978 2.21294 16.8582 2.38033 16.533C2.54771 16.2078 2.62334 15.8171 2.59432 15.4274C2.56529 15.0378 2.43342 14.6732 2.22116 14.396C2.10084 14.2356 1.95709 14.1082 1.79837 14.0213C1.63966 13.9344 1.46919 13.8897 1.297 13.8898L1.30019 13.8981ZM1.76864 16.1799C1.64239 16.3366 1.47464 16.4241 1.30019 16.4241C1.12574 16.4241 0.957983 16.3366 0.831737 16.1799C0.738966 16.0592 0.675766 15.9055 0.650133 15.7381C0.6245 15.5706 0.637586 15.3971 0.687734 15.2394C0.737882 15.0816 0.82284 14.9468 0.931859 14.8519C1.04088 14.7571 1.16906 14.7065 1.30019 14.7065C1.43132 14.7065 1.5595 14.7571 1.66852 14.8519C1.77754 14.9468 1.86249 15.0816 1.91264 15.2394C1.96279 15.3971 1.97588 15.5706 1.95024 15.7381C1.92461 15.9055 1.86141 16.0592 1.76864 16.1799V16.1799ZM11.4882 15.3833C11.3064 15.6201 11.1825 15.9217 11.1324 16.25C11.0822 16.5784 11.108 16.9187 11.2064 17.228C11.3048 17.5373 11.4714 17.8016 11.6852 17.9876C11.8991 18.1736 12.1504 18.2729 12.4076 18.2729C12.6647 18.2729 12.9161 18.1736 13.1299 17.9876C13.3437 17.8016 13.5104 17.5373 13.6088 17.228C13.7072 16.9187 13.733 16.5784 13.6828 16.25C13.6326 15.9217 13.5088 15.6201 13.327 15.3833C13.0817 15.0667 12.75 14.8898 12.4047 14.8914C12.0593 14.8929 11.7286 15.0728 11.485 15.3916L11.4882 15.3833ZM12.8776 17.1922C12.785 17.3129 12.6668 17.3952 12.5383 17.4286C12.4097 17.462 12.2763 17.4449 12.1552 17.3796C12.034 17.3144 11.9305 17.2037 11.8576 17.0618C11.7847 16.9199 11.7458 16.753 11.7458 16.5823C11.7458 16.4116 11.7847 16.2447 11.8576 16.1028C11.9305 15.9609 12.034 15.8503 12.1552 15.785C12.2763 15.7197 12.4097 15.7027 12.5383 15.736C12.6668 15.7694 12.785 15.8517 12.8776 15.9725C12.9395 16.0533 12.9885 16.1492 13.0218 16.2547C13.0551 16.3602 13.0721 16.4732 13.0718 16.5873C13.0715 16.7014 13.0539 16.8143 13.02 16.9195C12.9862 17.0247 12.9367 17.1202 12.8744 17.2005L12.8776 17.1922ZM9.82154 18.2542C9.52083 18.2542 9.22942 18.3899 8.99693 18.6382C8.76443 18.8865 8.60524 19.232 8.54645 19.616C8.48765 19.9999 8.5329 20.3985 8.67448 20.7438C8.81607 21.0892 9.04523 21.36 9.32295 21.5102C9.60067 21.6603 9.90977 21.6804 10.1976 21.5672C10.4855 21.454 10.7343 21.2143 10.9017 20.8891C11.0691 20.5639 11.1447 20.1732 11.1157 19.7835C11.0866 19.3939 10.9548 19.0294 10.7425 18.7521C10.622 18.5937 10.4786 18.4681 10.3204 18.3827C10.1623 18.2972 9.99274 18.2535 9.82154 18.2542V18.2542ZM10.29 20.5568C10.1637 20.7135 9.99599 20.8009 9.82154 20.8009C9.64709 20.8009 9.47934 20.7135 9.35309 20.5568C9.26032 20.4361 9.19712 20.2824 9.17149 20.1149C9.14585 19.9475 9.15894 19.774 9.20909 19.6162C9.25923 19.4585 9.34419 19.3237 9.45321 19.2288C9.56223 19.134 9.69041 19.0833 9.82154 19.0833C9.95267 19.0833 10.0808 19.134 10.1899 19.2288C10.2989 19.3237 10.3838 19.4585 10.434 19.6162C10.4841 19.774 10.4972 19.9475 10.4716 20.1149C10.446 20.2824 10.3828 20.4361 10.29 20.5568V20.5568ZM7.23709 21.6147C6.93638 21.6147 6.64497 21.7504 6.41248 21.9987C6.17999 22.2469 6.02079 22.5925 5.962 22.9764C5.9032 23.3603 5.94845 23.7589 6.09003 24.1043C6.23162 24.4497 6.46078 24.7205 6.7385 24.8706C7.01622 25.0207 7.32532 25.0409 7.61318 24.9276C7.90103 24.8144 8.14984 24.5748 8.31723 24.2496C8.48462 23.9243 8.56024 23.5336 8.53122 23.144C8.5022 22.7543 8.37033 22.3898 8.15806 22.1125C8.03744 21.9562 7.89425 21.8324 7.73673 21.7484C7.57922 21.6644 7.4105 21.6217 7.24028 21.623L7.23709 21.6147ZM7.70554 23.9172C7.5793 24.0739 7.41154 24.1614 7.23709 24.1614C7.06264 24.1614 6.89489 24.0739 6.76864 23.9172C6.67587 23.7965 6.61267 23.6428 6.58704 23.4754C6.5614 23.308 6.57449 23.1344 6.62464 22.9767C6.67479 22.8189 6.75974 22.6841 6.86876 22.5893C6.97778 22.4944 7.10596 22.4438 7.23709 22.4438C7.36822 22.4438 7.4964 22.4944 7.60542 22.5893C7.71444 22.6841 7.7994 22.8189 7.84955 22.9767C7.89969 23.1344 7.91278 23.308 7.88715 23.4754C7.86151 23.6428 7.79831 23.7965 7.70554 23.9172V23.9172Z" fill="white"/>
</svg>
