<svg width="20" height="20" viewBox="0 0 20 20" fill="none" xmlns="http://www.w3.org/2000/svg">
<g clip-path="url(#clip0_21_2)">
<path d="M13.5 13.75H1.5C0.671875 13.75 0 14.5898 0 15.625V18.125C0 19.1602 0.671875 20 1.5 20H13.5C13.7734 20 14 19.7168 14 19.375V14.375C14 14.0352 13.775 13.75 13.5 13.75ZM12.5 18.125H7V15.625H12.5V18.125ZM16.75 13.75H15.25C15.1125 13.75 15 13.8906 15 14.0625V19.6875C15 19.8584 15.1133 20 15.25 20H16.75C16.8867 20 17 19.8584 17 19.6875V14.0625C17 13.8906 16.8875 13.75 16.75 13.75ZM19.75 13.75H18.25C18.1125 13.75 18 13.8906 18 14.0625V19.6875C18 19.8584 18.1133 20 18.25 20H19.75C19.8867 20 20 19.8584 20 19.6875V14.0625C20 13.8906 19.8875 13.75 19.75 13.75ZM17.2906 3.40352C17.1125 3.25195 17 3.0125 17 2.74414V0.3125C17 0.141602 16.8875 0 16.75 0H15.25C15.1125 0 15 0.141602 15 0.3125V2.74414C15 3.60352 15.3203 4.44336 15.8944 4.91211C17.2125 5.97656 18 7.79297 18 9.75781V10.9375C18 11.1094 18.1125 11.25 18.25 11.25H19.75C19.8875 11.25 20 11.1094 20 10.9375V9.75781C20 7.19922 18.9875 4.82422 17.2906 3.40352ZM15.2437 5.53125C14.4937 4.88281 14 3.87695 14 2.74414V0.3125C14 0.141602 13.8875 0 13.75 0H12.25C12.1125 0 12 0.141602 12 0.3125V2.90547C12 4.61328 12.7687 6.09375 13.8844 7.07422C14.5875 7.6875 15 8.68359 15 9.75781V10.9375C15 11.1094 15.1125 11.25 15.25 11.25H16.75C16.8875 11.25 17 11.1094 17 10.9375V9.75781C17 8.0625 16.3437 6.49609 15.2437 5.53125Z" fill="white"/>
</g>
<defs>
<clipPath id="clip0_21_2">
<rect width="20" height="20" fill="white"/>
</clipPath>
</defs>
</svg>
