<svg width="25" height="25" viewBox="0 0 25 25" fill="none" xmlns="http://www.w3.org/2000/svg">
<path d="M16.508 15.9055C16.3953 15.9055 16.2836 15.857 16.2062 15.7631C15.2783 14.6363 13.9095 13.9902 12.451 13.9902C11.0396 13.9902 9.69998 14.6023 8.77517 15.6701C8.63396 15.833 8.38728 15.851 8.22419 15.7094C8.06111 15.568 8.04353 15.3215 8.18474 15.1582C9.25818 13.9195 10.8133 13.2092 12.4511 13.2092C14.1441 13.2092 15.7326 13.959 16.8094 15.2666C16.9465 15.4334 16.9226 15.6793 16.7562 15.8164C16.6834 15.8764 16.5953 15.9055 16.508 15.9055Z" fill="white"/>
<path d="M19.293 12.6391C19.1857 12.6391 19.0789 12.5951 19.0018 12.509C17.3354 10.6478 14.9475 9.58046 12.4508 9.58046C10.0029 9.58046 7.64649 10.6137 5.98594 12.4148C5.83965 12.5732 5.59278 12.5836 5.43399 12.4371C5.2752 12.2908 5.26543 12.0437 5.41153 11.8851C7.21973 9.92382 9.78535 8.79901 12.4508 8.79901C15.1693 8.79901 17.7691 9.96132 19.5838 11.9875C19.7275 12.1482 19.7141 12.3951 19.5533 12.539C19.4787 12.606 19.3857 12.6391 19.293 12.6391Z" fill="white"/>
<path d="M21.8842 9.56716C21.7791 9.56716 21.6744 9.52498 21.5973 9.44158C19.2467 6.89783 15.9127 5.43884 12.4504 5.43884C8.98752 5.43884 5.77092 6.82673 3.39358 9.34685C3.24533 9.50408 2.99807 9.51091 2.84143 9.36306C2.6844 9.21482 2.67717 8.96775 2.82522 8.81091C5.35158 6.13259 8.76994 4.65759 12.4504 4.65759C16.1299 4.65759 19.6729 6.20798 22.1711 8.9115C22.3176 9.07009 22.3078 9.31716 22.1494 9.46365C22.0742 9.53279 21.9791 9.56716 21.8842 9.56716Z" fill="white"/>
<path d="M12.494 20.1576C11.5942 20.1576 10.8621 19.4252 10.8621 18.525C10.8621 17.6256 11.5942 16.8936 12.494 16.8936C13.3938 16.8936 14.1258 17.6254 14.1258 18.525C14.1258 19.4252 13.3938 20.1576 12.494 20.1576ZM12.494 17.6748C12.025 17.6748 11.6434 18.0562 11.6434 18.525C11.6434 18.9945 12.025 19.3764 12.494 19.3764C12.9629 19.3764 13.3445 18.9945 13.3445 18.525C13.3445 18.0562 12.9629 17.6748 12.494 17.6748Z" fill="white"/>
</svg>
