<svg width="50" height="46" viewBox="0 0 50 46" fill="none" xmlns="http://www.w3.org/2000/svg">
<path d="M27.0654 0.424798C24.1624 0.415997 21.2639 0.651529 18.4004 1.1289C17.6924 1.24916 17.0481 1.6112 16.5771 2.15331C16.5757 2.15404 16.5744 2.15504 16.5732 2.15624C16.0894 2.71554 15.8232 3.43038 15.8232 4.16992V5.23827L13.5605 3.65038C13.1983 3.3943 12.7849 3.21986 12.3487 3.1391C11.9126 3.05834 11.4641 3.07319 11.0342 3.18261C8.02539 3.94921 5.49219 5.00976 3.70898 6.25097C1.76465 7.60351 0.702148 9.18066 0.635742 10.8125C0.632813 10.8672 0.631836 10.9228 0.631836 10.9795V17.5781C0.635876 18.2481 0.795331 18.908 1.09766 19.5059C0.822101 20.0494 0.664682 20.6452 0.635742 21.2539C0.632813 21.3086 0.631836 21.3643 0.631836 21.4209V28.0195C0.636437 28.6937 0.79828 29.3574 1.10449 29.958C2.14746 32.0557 4.83594 33.8662 8.87891 35.1934C12.8125 36.4844 17.792 37.1953 22.9014 37.1953C23.4462 37.1953 23.9867 37.1848 24.5249 37.1694C24.9057 37.5276 25.3287 37.8382 25.7845 38.0943C26.6428 38.5714 27.5542 38.9461 28.4998 39.2106C27.5394 39.9664 27.332 40.7422 27.332 41.271C27.332 43.5173 30.956 45.2114 35.7617 45.2114C40.5674 45.2114 44.1914 43.5174 44.1914 41.271C44.1914 40.6854 43.9403 39.832 42.7748 39.0263C45.629 38.072 47.1972 36.6535 47.1972 35.02C47.1972 34.3629 46.9222 33.3763 45.6114 32.4068C45.5575 32.3669 45.5 32.328 45.4433 32.2889C45.7615 32.0993 46.0637 31.9053 46.3447 31.706C48.3008 30.3203 49.334 28.706 49.334 27.0381V20.4385C49.3279 19.6953 49.1308 18.9663 48.7617 18.3213C49.1303 17.674 49.3273 16.9431 49.334 16.1982V9.5996C49.334 4.45507 39.5527 0.424798 27.0654 0.424798ZM1.90332 10.8652C2.00684 8.34277 5.62598 5.87011 11.3477 4.41308C11.6001 4.34876 11.8635 4.34007 12.1196 4.38762C12.3758 4.43517 12.6185 4.53782 12.8311 4.68847L15.8232 6.78906L22.4717 11.4551L24.1221 12.6133L31.9336 18.0967C31.083 18.2529 30.2061 18.3877 29.3096 18.498C28.1797 18.6387 27.0186 18.7412 25.8418 18.8057C24.8701 18.8594 23.8867 18.8857 22.9014 18.8857C22.0273 18.8857 21.1618 18.8652 20.3047 18.8242C19.4746 18.7851 18.6546 18.7269 17.8447 18.6494C17.165 18.585 16.4941 18.5065 15.832 18.4141C15.5059 18.3691 15.1826 18.321 14.8623 18.2695C11.9189 17.7969 9.3418 17.082 7.27832 16.2051C6.74316 15.9785 6.24349 15.7412 5.7793 15.4932C3.32031 14.1816 1.90234 12.6064 1.90137 10.9795C1.90137 10.9414 1.90234 10.9033 1.90332 10.8652ZM7.83691 26.8711C4.06543 25.3818 1.90137 23.3965 1.90137 21.4219C1.90137 21.3838 1.90234 21.3457 1.90332 21.3066C1.9105 21.1343 1.93371 20.963 1.97266 20.7949C2.69629 21.6211 3.78125 22.4785 5.37988 23.3086C9.60059 25.498 15.9863 26.7539 22.9014 26.7539C23.8008 26.7539 24.6917 26.7327 25.5742 26.6904C26.708 26.6367 27.8232 26.5475 28.9199 26.4228L31.9346 28.5391C30.9326 28.7227 29.8936 28.876 28.8291 28.9961C26.861 29.218 24.8819 29.3285 22.9014 29.3271C17.2012 29.3271 11.8506 28.4551 7.83691 26.8711ZM44.8569 33.4278C45.3454 33.7891 45.9277 34.3586 45.9277 35.02C45.9277 36.046 44.4973 37.142 42.1958 37.8801C41.9842 37.9481 41.7963 38.0749 41.654 38.2457C41.5117 38.4165 41.4208 38.6242 41.3921 38.8446C41.3633 39.065 41.3977 39.289 41.4914 39.4906C41.5851 39.6922 41.7341 39.863 41.9211 39.9831L41.9218 39.9835C42.2953 40.2223 42.9219 40.707 42.9219 41.271C42.9219 41.8653 42.2132 42.5208 41.026 43.0242C39.6306 43.616 37.761 43.9418 35.7617 43.9418C31.6637 43.9418 28.6016 42.5317 28.6016 41.2709C28.6016 40.7996 29.0342 40.3869 29.398 40.1229C29.5769 39.9937 29.7156 39.8166 29.7984 39.6121C29.8812 39.4076 29.9047 39.1839 29.8662 38.9666C29.8276 38.7493 29.7286 38.5474 29.5805 38.3838C29.4324 38.2202 29.2412 38.1017 29.0288 38.0419C28.173 37.8122 27.3456 37.4874 26.5622 37.0734C28.2388 36.9652 29.9087 36.7712 31.5654 36.4922C32.2856 36.3725 32.9399 36.001 33.4117 35.4439C33.8835 34.8868 34.1421 34.1802 34.1416 33.4502V32.7607L36.4014 34.3613C36.8884 34.707 37.4657 34.9032 38.0625 34.9258C38.1045 34.9277 38.1465 34.9287 38.1885 34.9287C38.4411 34.9284 38.6927 34.8966 38.9375 34.834C40.9077 34.3325 42.6703 33.7043 44.1543 32.9822C44.398 33.1152 44.6327 33.264 44.8569 33.4278ZM48.0645 20.4394C48.0635 23.0049 44.4463 25.5205 38.624 27.0049C38.3696 27.0694 38.1043 27.0781 37.8462 27.0304C37.5881 26.9827 37.3434 26.8797 37.1289 26.7285L33.8105 24.3994C34.029 23.9685 34.1425 23.4919 34.1416 23.0088V21.9199L36.4004 23.5205C36.8889 23.8671 37.4678 24.0639 38.0664 24.0869H38.0898C38.1211 24.0879 38.1523 24.0889 38.1836 24.0889C38.4379 24.0888 38.6911 24.057 38.9375 23.9941C41.9951 23.2158 44.5566 22.1338 46.3447 20.8662C46.9128 20.4708 47.4361 20.0147 47.9053 19.5059C48.0094 19.8058 48.0632 20.1209 48.0645 20.4385V20.4394ZM47.9668 10.332C47.5889 11.7685 46.1035 13.1523 43.7803 14.3144C43.291 14.5605 42.7646 14.7956 42.2012 15.0195C41.0347 15.4781 39.8399 15.8607 38.624 16.165C38.3697 16.2299 38.1044 16.2389 37.8462 16.1914C37.5881 16.1439 37.3434 16.0409 37.1289 15.8896L32.7803 12.8369H32.7793L30.7061 11.3809L18.1133 2.54199C18.2712 2.46418 18.4396 2.40989 18.6133 2.38085C21.4064 1.91519 24.2338 1.68554 27.0654 1.69433C32.7656 1.69433 38.1162 2.5664 42.1299 4.15136C45.9014 5.64062 48.0645 7.62597 48.0645 9.60058C48.0641 9.84762 48.0313 10.0935 47.9668 10.332V10.332Z" fill="black"/>
<path d="M45.6903 7.14866C45.662 7.11616 45.6244 7.09305 45.5826 7.08239C45.5408 7.07173 45.4967 7.07403 45.4563 7.08897L41.9861 8.35142C41.919 8.37582 41.847 8.38377 41.7762 8.3746C41.7054 8.36542 41.6378 8.33939 41.5791 8.29868L39.1738 6.63035C39.1066 6.58371 39.0535 6.51949 39.0202 6.44469C38.987 6.3699 38.975 6.28741 38.9855 6.20625C38.996 6.1251 39.0287 6.04839 39.0798 5.98451C39.131 5.92064 39.1987 5.87206 39.2756 5.84408L41.688 4.96645C41.7286 4.95176 41.7638 4.92516 41.789 4.89012C41.8141 4.85509 41.8282 4.81326 41.8292 4.77012C41.8302 4.72698 41.8181 4.68454 41.7946 4.64838C41.771 4.61221 41.7371 4.584 41.6973 4.56745C41.4177 4.45329 41.1285 4.343 40.8296 4.23659C40.7822 4.21979 40.7305 4.21996 40.6833 4.23707L37.647 5.34169C37.5799 5.3661 37.5079 5.37405 37.437 5.36487C37.3662 5.35569 37.2986 5.32966 37.2399 5.28895L35.1743 3.85624C35.107 3.8096 35.0539 3.74537 35.0207 3.67058C34.9875 3.59578 34.9755 3.5133 34.986 3.43214C34.9965 3.35098 35.0291 3.27427 35.0802 3.2104C35.1314 3.14652 35.1991 3.09794 35.276 3.06996C35.2947 3.0632 35.3107 3.05041 35.3213 3.0336C35.3319 3.0168 35.3366 2.99694 35.3347 2.97714C35.3328 2.95735 35.3244 2.93876 35.3108 2.92429C35.2971 2.90981 35.2791 2.90029 35.2594 2.89721C34.1136 2.7213 32.9038 2.56204 31.6591 2.48622C31.6412 2.48524 31.6235 2.48959 31.6081 2.49873C31.5928 2.50787 31.5805 2.52138 31.5728 2.53754C31.5651 2.55369 31.5625 2.57176 31.5651 2.58945C31.5678 2.60713 31.5756 2.62362 31.5877 2.63683C31.6219 2.67169 31.6532 2.70925 31.6814 2.74913C31.7101 2.80556 31.7265 2.86744 31.7295 2.93067C31.7325 2.99391 31.722 3.05707 31.6988 3.11597C31.6756 3.17486 31.6401 3.22816 31.5948 3.27233C31.5494 3.3165 31.4952 3.35053 31.4357 3.37218L29.1395 4.20757C29.0723 4.23198 29.0004 4.23993 28.9295 4.23075C28.8587 4.22158 28.7911 4.19554 28.7324 4.15483L26.4699 2.5855C26.43 2.55787 26.3819 2.54449 26.3335 2.54753C26.0118 2.56788 25.6933 2.59174 25.3778 2.6191C25.3339 2.62297 25.2923 2.64027 25.2586 2.66863C25.2249 2.697 25.2008 2.73506 25.1895 2.77763C25.1782 2.8202 25.1804 2.86521 25.1956 2.90654C25.2108 2.94786 25.2384 2.98349 25.2746 3.00857L27.0296 4.22586C27.0968 4.2725 27.15 4.33673 27.1832 4.41153C27.2164 4.48633 27.2284 4.56881 27.2179 4.64997C27.2074 4.73113 27.1747 4.80784 27.1236 4.87171C27.0724 4.93559 27.0047 4.98417 26.9278 5.01215L24.6705 5.83334C24.6337 5.84671 24.6013 5.86991 24.5768 5.90042C24.5523 5.93092 24.5366 5.96756 24.5315 6.00636C24.5264 6.04515 24.532 6.0846 24.5477 6.12044C24.5634 6.15627 24.5887 6.1871 24.6207 6.20958L25.2207 6.63075C25.2489 6.65054 25.2814 6.66323 25.3156 6.66775C25.3497 6.67227 25.3845 6.66848 25.4168 6.65671L28.5564 5.5145C28.6235 5.49009 28.6955 5.48214 28.7663 5.49131C28.8372 5.50049 28.9048 5.52653 28.9634 5.56724L31.0291 7C31.0963 7.04664 31.1495 7.11087 31.1827 7.18566C31.2159 7.26046 31.2279 7.34294 31.2174 7.4241C31.2069 7.50526 31.1743 7.58197 31.1231 7.64584C31.0719 7.70971 31.0042 7.75829 30.9273 7.78627L28.6388 8.61883C28.602 8.6322 28.5696 8.65541 28.5451 8.68591C28.5206 8.71642 28.5049 8.75306 28.4998 8.79185C28.4947 8.83064 28.5003 8.8701 28.516 8.90593C28.5317 8.94176 28.557 8.9726 28.589 8.99508L29.189 9.41624C29.2172 9.43602 29.2498 9.44871 29.2839 9.45323C29.318 9.45774 29.3528 9.45395 29.3851 9.44218L32.5559 8.28864C32.623 8.26423 32.695 8.25627 32.7658 8.26544C32.8366 8.2746 32.9042 8.30063 32.9629 8.34133L35.3683 10.0097C35.4355 10.0563 35.4886 10.1206 35.5218 10.1954C35.555 10.2702 35.567 10.3526 35.5565 10.4338C35.546 10.515 35.5134 10.5917 35.4623 10.6555C35.4111 10.7194 35.3434 10.768 35.2665 10.796L32.9441 11.6408C32.9073 11.6542 32.8749 11.6774 32.8504 11.7079C32.8259 11.7384 32.8103 11.7751 32.8051 11.8139C32.8 11.8526 32.8056 11.8921 32.8213 11.9279C32.837 11.9638 32.8623 11.9946 32.8943 12.0171L33.4943 12.4382C33.5225 12.458 33.5551 12.4707 33.5892 12.4752C33.6234 12.4798 33.6581 12.476 33.6904 12.4642L36.8951 11.2983C36.9622 11.2739 37.0342 11.266 37.105 11.2752C37.1758 11.2843 37.2434 11.3104 37.3021 11.3511L41.3886 14.1855C41.4179 14.2058 41.4518 14.2185 41.4872 14.2225C41.5226 14.2265 41.5584 14.2217 41.5915 14.2084C41.8183 14.1175 42.0386 14.024 42.2525 13.9282C42.2871 13.9127 42.3171 13.8882 42.3392 13.8573C42.3613 13.8264 42.3748 13.7902 42.3783 13.7524C42.3818 13.7146 42.3752 13.6765 42.3592 13.6421C42.3431 13.6077 42.3182 13.5781 42.287 13.5565L39.0051 11.28C38.9378 11.2334 38.8847 11.1692 38.8515 11.0944C38.8183 11.0196 38.8063 10.9371 38.8168 10.8559C38.8273 10.7748 38.8599 10.6981 38.9111 10.6342C38.9622 10.5703 39.03 10.5217 39.1069 10.4938L41.4031 9.6584C41.4702 9.63399 41.5422 9.62604 41.613 9.63521C41.6839 9.64439 41.7514 9.67042 41.8101 9.71113L45.0735 11.9746C45.1138 12.0029 45.1628 12.0163 45.2119 12.0125C45.2611 12.0087 45.3074 11.988 45.343 11.9538C45.4944 11.8066 45.6374 11.6511 45.7713 11.4878C45.79 11.4649 45.8038 11.4384 45.8117 11.4099C45.8197 11.3814 45.8216 11.3516 45.8175 11.3223C45.8134 11.293 45.8032 11.2648 45.7877 11.2397C45.7722 11.2145 45.7516 11.1928 45.7273 11.1759L43.5129 9.64006C43.4457 9.59342 43.3926 9.52919 43.3594 9.45439C43.3262 9.3796 43.3142 9.29711 43.3247 9.21596C43.3352 9.1348 43.3678 9.05809 43.419 8.99422C43.4701 8.93034 43.5379 8.88176 43.6148 8.85379L45.9774 7.99425C46.0074 7.98347 46.0346 7.96611 46.057 7.94345C46.0795 7.92079 46.0965 7.89341 46.107 7.86329C46.1175 7.83318 46.1211 7.80111 46.1175 7.76943C46.114 7.73775 46.1034 7.70726 46.0865 7.6802C45.9673 7.49379 45.8349 7.31615 45.6903 7.14866ZM32.732 6.92898L30.6663 5.49623C30.5991 5.44959 30.546 5.38536 30.5128 5.31056C30.4796 5.23577 30.4675 5.15328 30.4781 5.07213C30.4886 4.99097 30.5212 4.91426 30.5723 4.85038C30.6235 4.78651 30.6912 4.73793 30.7681 4.70995L33.0644 3.87457C33.1315 3.85016 33.2035 3.84221 33.2743 3.85138C33.3451 3.86056 33.4127 3.8866 33.4714 3.9273L35.5371 5.36003C35.6043 5.40667 35.6574 5.4709 35.6906 5.54569C35.7238 5.62049 35.7358 5.70297 35.7253 5.78413C35.7148 5.86529 35.6822 5.942 35.6311 6.00587C35.5799 6.06974 35.5122 6.11832 35.4353 6.1463L33.139 6.98167C33.0719 7.00609 32.9999 7.01406 32.9291 7.00489C32.8583 6.99572 32.7907 6.96969 32.732 6.92898V6.92898ZM39.7744 9.15603L37.4782 9.99139C37.4111 10.0158 37.3391 10.0237 37.2683 10.0146C37.1974 10.0054 37.1298 9.97936 37.0712 9.93865L34.6658 8.27028C34.5986 8.22365 34.5455 8.15942 34.5122 8.08463C34.479 8.00983 34.467 7.92735 34.4775 7.84619C34.488 7.76503 34.5207 7.68833 34.5718 7.62445C34.623 7.56058 34.6907 7.51201 34.7676 7.48403L37.0639 6.64863C37.131 6.62422 37.203 6.61627 37.2738 6.62545C37.3446 6.63462 37.4122 6.66066 37.4709 6.70137L39.8762 8.36973C39.9435 8.41637 39.9966 8.4806 40.0298 8.55539C40.063 8.63019 40.075 8.71268 40.0645 8.79384C40.054 8.87501 40.0214 8.95172 39.9702 9.01559C39.9191 9.07947 39.8513 9.12805 39.7744 9.15603V9.15603Z" fill="black"/>
<path d="M4.02867 11.9798C4.04218 12.0262 4.06506 12.0693 4.09592 12.1065C4.12677 12.1437 4.16493 12.1741 4.20803 12.1959C4.25113 12.2178 4.29826 12.2305 4.34649 12.2334C4.39472 12.2362 4.44302 12.2291 4.4884 12.2126L7.31702 11.1835C7.38409 11.1591 7.45617 11.1517 7.52679 11.162C7.5974 11.1724 7.66436 11.2 7.72165 11.2426L9.6275 12.6584C9.69002 12.7048 9.73879 12.7673 9.76865 12.8392C9.7985 12.9112 9.80832 12.9898 9.79707 13.0669C9.78582 13.144 9.75391 13.2165 9.70473 13.2769C9.65556 13.3373 9.59095 13.3832 9.51777 13.4099L6.92533 14.353C6.86224 14.3759 6.807 14.4163 6.76609 14.4695C6.72519 14.5228 6.70033 14.5865 6.69443 14.6534C6.68853 14.7203 6.70184 14.7874 6.7328 14.847C6.76375 14.9065 6.81106 14.956 6.86917 14.9896C6.98154 15.0544 7.09671 15.1183 7.21468 15.1814C7.25833 15.2045 7.30636 15.2183 7.35565 15.2217C7.40495 15.2251 7.45441 15.218 7.50081 15.2011L11.0078 13.9252C11.0749 13.9008 11.147 13.8935 11.2176 13.9038C11.2882 13.9141 11.3552 13.9418 11.4124 13.9843L13.6318 15.633C13.6943 15.6794 13.7431 15.7419 13.7729 15.8139C13.8028 15.8858 13.8126 15.9645 13.8013 16.0415C13.7901 16.1186 13.7582 16.1911 13.709 16.2515C13.6598 16.3119 13.5952 16.3579 13.522 16.3845L13.1801 16.5089C13.1078 16.5352 13.046 16.5845 13.0043 16.6492C12.9626 16.714 12.9432 16.7906 12.9491 16.8673C12.955 16.9441 12.9859 17.0169 13.0371 17.0744C13.0882 17.132 13.1568 17.1712 13.2323 17.1862C13.417 17.2228 13.6036 17.2582 13.7921 17.2923C13.8539 17.3034 13.9176 17.298 13.9767 17.2765L15.012 16.8998C15.0791 16.8754 15.1512 16.8681 15.2218 16.8784C15.2924 16.8887 15.3594 16.9164 15.4167 16.9589L16.2816 17.6015C16.3325 17.6394 16.3926 17.6629 16.4556 17.6696C16.6417 17.6892 16.829 17.7076 17.0175 17.7247C17.0941 17.7316 17.1707 17.7133 17.2359 17.6726C17.3011 17.6319 17.3512 17.571 17.3786 17.4992C17.4061 17.4274 17.4093 17.3486 17.3879 17.2748C17.3664 17.201 17.3215 17.1362 17.2599 17.0903L16.9918 16.8912C16.9293 16.8448 16.8805 16.7823 16.8507 16.7103C16.8208 16.6384 16.811 16.5597 16.8222 16.4827C16.8335 16.4056 16.8654 16.333 16.9146 16.2727C16.9637 16.2123 17.0284 16.1663 17.1015 16.1397L19.4658 15.2796C19.5329 15.2552 19.6049 15.2478 19.6756 15.2581C19.7462 15.2684 19.8131 15.2961 19.8704 15.3386L23.1163 17.7499C23.183 17.7995 23.2651 17.824 23.3481 17.8191C23.4984 17.8102 23.6481 17.8005 23.797 17.79C23.8689 17.7849 23.9374 17.7579 23.9935 17.7127C24.0495 17.6675 24.0904 17.6062 24.1105 17.5371C24.1307 17.4679 24.1292 17.3943 24.1062 17.326C24.0833 17.2578 24.04 17.1982 23.9821 17.1553L21.4455 15.2709C21.383 15.2245 21.3343 15.162 21.3044 15.09C21.2746 15.0181 21.2647 14.9394 21.276 14.8624C21.2872 14.7853 21.3191 14.7128 21.3683 14.6524C21.4175 14.592 21.4821 14.546 21.5553 14.5194L23.5813 13.7823C23.6397 13.7611 23.6914 13.7249 23.7312 13.6772C23.771 13.6296 23.7975 13.5723 23.8081 13.5112C23.8187 13.45 23.8129 13.3871 23.7913 13.3289C23.7698 13.2707 23.7333 13.2192 23.6854 13.1797L23.4703 13.0018C23.4237 12.9632 23.3679 12.9373 23.3083 12.9266C23.2487 12.9158 23.1874 12.9206 23.1302 12.9404L20.0653 14.0041C19.9982 14.0285 19.9261 14.0358 19.8555 14.0255C19.7849 14.0152 19.7179 13.9875 19.6606 13.945L17.4413 12.2963C17.3788 12.2499 17.33 12.1874 17.3002 12.1154C17.2703 12.0435 17.2605 11.9648 17.2718 11.8878C17.283 11.8107 17.3149 11.7381 17.3641 11.6778C17.4133 11.6174 17.4779 11.5714 17.5511 11.5448L19.4973 10.8776C19.5587 10.8565 19.6132 10.8189 19.6546 10.7688C19.696 10.7187 19.7227 10.6581 19.7319 10.5938C19.741 10.5294 19.7321 10.4638 19.7063 10.4042C19.6805 10.3445 19.6386 10.2932 19.5854 10.2559L19.3068 10.0603C19.2612 10.0283 19.2086 10.0076 19.1534 9.99982C19.0981 9.99207 19.0418 9.99754 18.9891 10.0158L16.0611 11.0295C15.994 11.0539 15.9219 11.0612 15.8513 11.0509C15.7807 11.0406 15.7137 11.0129 15.6564 10.9704L13.7506 9.55455C13.688 9.50811 13.6393 9.44561 13.6094 9.37369C13.5796 9.30176 13.5697 9.22309 13.581 9.14604C13.5922 9.06898 13.6241 8.9964 13.6733 8.93602C13.7225 8.87563 13.7871 8.82969 13.8603 8.80306L15.6635 8.18708C15.725 8.16607 15.7795 8.12843 15.821 8.07834C15.8625 8.02826 15.8893 7.96767 15.8984 7.90329C15.9076 7.83892 15.8988 7.77326 15.8729 7.71359C15.8471 7.65392 15.8052 7.60257 15.752 7.56521L15.474 7.37011C15.4284 7.3381 15.3759 7.31736 15.3207 7.3096C15.2655 7.30184 15.2093 7.30728 15.1566 7.32547L12.3703 8.2877C12.3032 8.3121 12.2311 8.31947 12.1605 8.30916C12.0899 8.29885 12.0229 8.27117 11.9656 8.22861L9.69206 6.43535C9.64454 6.39782 9.58816 6.37315 9.52835 6.3637C9.46854 6.35425 9.4073 6.36034 9.35052 6.38139C9.23501 6.42459 9.12105 6.46843 9.00865 6.5129C8.95102 6.53543 8.90033 6.57272 8.86167 6.62102C8.82301 6.66933 8.79773 6.72695 8.78838 6.78812C8.77903 6.84928 8.78593 6.91182 8.8084 6.96947C8.83086 7.02712 8.86809 7.07785 8.91635 7.11657L10.3905 8.29637C10.453 8.34281 10.5018 8.40531 10.5317 8.47724C10.5615 8.54916 10.5713 8.62783 10.5601 8.70489C10.5488 8.78195 10.5169 8.85452 10.4678 8.91491C10.4186 8.9753 10.354 9.02124 10.2808 9.04787L7.91653 9.90798C7.84946 9.93239 7.77738 9.93976 7.70676 9.92945C7.63614 9.91914 7.56919 9.89146 7.5119 9.8489L5.7603 8.54769C5.69491 8.49901 5.61467 8.4745 5.53325 8.47832C5.45182 8.48214 5.37423 8.51406 5.31369 8.56865C5.23533 8.63986 5.16006 8.7117 5.08789 8.78416C5.05224 8.82005 5.02473 8.86318 5.00723 8.91064C4.98972 8.95809 4.98263 9.00876 4.98644 9.0592C4.99025 9.10963 5.00487 9.15866 5.02931 9.20295C5.05374 9.24723 5.08742 9.28574 5.12806 9.31586L5.93681 9.91665C5.99932 9.9631 6.0481 10.0256 6.07795 10.0975C6.1078 10.1695 6.11763 10.2481 6.10637 10.3252C6.09512 10.4022 6.06321 10.4748 6.01403 10.5352C5.96486 10.5956 5.90025 10.6415 5.82706 10.6681L4.18351 11.2661C4.10555 11.295 4.04021 11.3504 3.99882 11.4225C3.95743 11.4947 3.94261 11.579 3.95695 11.6609C3.97466 11.7685 3.99861 11.875 4.02867 11.9798ZM15.8662 12.364L18.0855 14.0127C18.1481 14.0591 18.1968 14.1216 18.2267 14.1935C18.2565 14.2655 18.2664 14.3441 18.2551 14.4212C18.2438 14.4983 18.2119 14.5708 18.1628 14.6312C18.1136 14.6916 18.049 14.7375 17.9758 14.7642L15.6115 15.6243C15.5445 15.6487 15.4724 15.6561 15.4018 15.6458C15.3312 15.6355 15.2642 15.6078 15.2069 15.5652L12.9876 13.9165C12.9251 13.8701 12.8763 13.8076 12.8464 13.7357C12.8166 13.6638 12.8068 13.5851 12.818 13.508C12.8293 13.431 12.8612 13.3584 12.9103 13.298C12.9595 13.2376 13.0241 13.1917 13.0973 13.1651L15.4616 12.3049C15.5286 12.2805 15.6007 12.2732 15.6713 12.2835C15.742 12.2938 15.8089 12.3215 15.8662 12.364V12.364ZM9.40651 10.4233L11.7708 9.56322C11.8378 9.53881 11.9099 9.53144 11.9805 9.54175C12.0511 9.55206 12.1181 9.57973 12.1754 9.62229L14.0813 11.0381C14.1438 11.0845 14.1926 11.147 14.2224 11.2189C14.2523 11.2909 14.2621 11.3695 14.2509 11.4466C14.2396 11.5237 14.2077 11.5962 14.1585 11.6566C14.1094 11.717 14.0447 11.763 13.9716 11.7896L11.6073 12.6497C11.5402 12.6741 11.4682 12.6815 11.3975 12.6712C11.3269 12.6609 11.26 12.6332 11.2027 12.5906L9.29677 11.1748C9.23427 11.1283 9.1855 11.0658 9.15565 10.9939C9.12581 10.922 9.11599 10.8433 9.12724 10.7663C9.13849 10.6892 9.17039 10.6167 9.21956 10.5563C9.26873 10.4959 9.33333 10.45 9.40651 10.4233V10.4233Z" fill="black"/>
</svg>
