<svg width="50" height="38" viewBox="0 0 50 38" fill="none" xmlns="http://www.w3.org/2000/svg">
<path d="M48.8271 11.1875H42.9805L41.3555 7.125C39.6855 2.94824 35.7002 0.25 31.2012 0.25H18.7988C14.3008 0.25 10.3144 2.94824 8.64355 7.125L7.01855 11.1875H1.17285C0.410152 11.1875 -0.149418 11.9043 0.0361286 12.6436L0.622066 14.9873C0.751949 15.5088 1.2207 15.875 1.75878 15.875H3.71875C2.40722 17.0205 1.5625 18.6855 1.5625 20.5625V25.25C1.5625 26.8242 2.16406 28.2451 3.125 29.3447V34.625C3.125 36.3506 4.52441 37.75 6.25 37.75H9.375C11.1006 37.75 12.5 36.3506 12.5 34.625V31.5H37.5V34.625C37.5 36.3506 38.8994 37.75 40.625 37.75H43.75C45.4756 37.75 46.875 36.3506 46.875 34.625V29.3447C47.8359 28.2461 48.4375 26.8252 48.4375 25.25V20.5625C48.4375 18.6855 47.5928 17.0205 46.2822 15.875H48.2422C48.7803 15.875 49.249 15.5088 49.3789 14.9873L49.9648 12.6436C50.1494 11.9043 49.5898 11.1875 48.8271 11.1875ZM14.4463 9.44629C15.1582 7.66699 16.8818 6.5 18.7988 6.5H31.2012C33.1182 6.5 34.8418 7.66699 35.5537 9.44629L37.5 14.3125H12.5L14.4463 9.44629ZM9.375 25.2305C7.5 25.2305 6.25 23.9844 6.25 22.1152C6.25 20.2461 7.5 19 9.375 19C11.25 19 14.0625 21.8037 14.0625 23.6729C14.0625 25.542 11.25 25.2305 9.375 25.2305ZM40.625 25.2305C38.75 25.2305 35.9375 25.542 35.9375 23.6729C35.9375 21.8037 38.75 19 40.625 19C42.5 19 43.75 20.2461 43.75 22.1152C43.75 23.9844 42.5 25.2305 40.625 25.2305V25.2305Z" fill="black"/>
</svg>
