<svg width="30" height="30" viewBox="0 0 30 30" fill="none" xmlns="http://www.w3.org/2000/svg">
<path d="M21.2189 8.78085C20.9852 8.54685 20.6063 8.54685 20.3726 8.78085L15 14.1541L9.62736 8.78085C9.39366 8.54685 9.01484 8.54685 8.78114 8.78085C8.54745 9.01454 8.54745 9.39337 8.78114 9.62706L14.1538 15.0003L8.78114 20.3735C8.54745 20.6069 8.54745 20.9861 8.78114 21.2198C8.89814 21.3365 9.05105 21.3948 9.20425 21.3948C9.35746 21.3948 9.51036 21.3365 9.62736 21.2198L15 15.8468L20.3726 21.2198C20.4896 21.3365 20.6425 21.3948 20.7957 21.3948C20.949 21.3948 21.1019 21.3365 21.2189 21.2198C21.4526 20.9861 21.4526 20.6069 21.2189 20.3735L15.8462 15.0003L21.2189 9.62706C21.4529 9.39367 21.4529 9.01454 21.2189 8.78085ZM15 0C6.72874 0 0 6.72874 0 14.9994C0.000598456 23.271 6.72994 30 15.0012 30C23.2716 30 30 23.2707 30 14.9994C30 6.72874 23.2713 0 15 0ZM15.0012 28.8034H15.0006C7.38973 28.8034 1.19751 22.6109 1.19691 14.9997C1.19691 7.38884 7.38884 1.19721 15 1.19721C22.6112 1.19721 28.8031 7.38914 28.8031 14.9997C28.8031 22.6106 22.6118 28.8034 15.0012 28.8034Z" fill="white"/>
</svg>
