<svg width="115" height="20" viewBox="0 0 115 20" fill="none" xmlns="http://www.w3.org/2000/svg">
<path d="M0.534091 19V17.4659L9.94318 3.42045H0.431818V1.54545H12.4659V3.07954L3.05682 17.125H12.5682V19H0.534091ZM21.3295 19.2727C20.0682 19.2727 18.9801 18.9943 18.0653 18.4375C17.1562 17.875 16.4545 17.0909 15.9602 16.0852C15.4716 15.0739 15.2273 13.8977 15.2273 12.5568C15.2273 11.2159 15.4716 10.0341 15.9602 9.01136C16.4545 7.98295 17.142 7.18182 18.0227 6.60795C18.9091 6.02841 19.9432 5.73864 21.125 5.73864C21.8068 5.73864 22.4801 5.85227 23.1449 6.07954C23.8097 6.30682 24.4148 6.67614 24.9602 7.1875C25.5057 7.69318 25.9403 8.36364 26.2642 9.19886C26.5881 10.0341 26.75 11.0625 26.75 12.2841V13.1364H16.6591V11.3977H24.7045C24.7045 10.6591 24.5568 10 24.2614 9.42045C23.9716 8.84091 23.5568 8.38352 23.017 8.0483C22.483 7.71307 21.8523 7.54545 21.125 7.54545C20.3239 7.54545 19.6307 7.74432 19.0455 8.14205C18.4659 8.53409 18.0199 9.04545 17.7074 9.67614C17.3949 10.3068 17.2386 10.983 17.2386 11.7045V12.8636C17.2386 13.8523 17.4091 14.6903 17.75 15.3778C18.0966 16.0597 18.5767 16.5795 19.1903 16.9375C19.804 17.2898 20.517 17.4659 21.3295 17.4659C21.858 17.4659 22.3352 17.392 22.7614 17.2443C23.1932 17.0909 23.5653 16.8636 23.8778 16.5625C24.1903 16.2557 24.4318 15.875 24.6023 15.4205L26.5455 15.9659C26.3409 16.625 25.9972 17.2045 25.5142 17.7045C25.0313 18.1989 24.4347 18.5852 23.7244 18.8636C23.0142 19.1364 22.2159 19.2727 21.3295 19.2727ZM35.1278 19.2727C33.9006 19.2727 32.8438 18.983 31.9574 18.4034C31.071 17.8239 30.3892 17.0256 29.9119 16.0085C29.4347 14.9915 29.196 13.8295 29.196 12.5227C29.196 11.1932 29.4403 10.0199 29.929 9.00284C30.4233 7.98011 31.1108 7.18182 31.9915 6.60795C32.8778 6.02841 33.9119 5.73864 35.0938 5.73864C36.0142 5.73864 36.8438 5.90909 37.5824 6.25C38.321 6.59091 38.9261 7.06818 39.3977 7.68182C39.8693 8.29545 40.1619 9.01136 40.2756 9.82955H38.2642C38.1108 9.23295 37.7699 8.70455 37.2415 8.24432C36.7188 7.77841 36.0142 7.54545 35.1278 7.54545C34.3438 7.54545 33.6563 7.75 33.0653 8.15909C32.4801 8.5625 32.0227 9.13352 31.6932 9.87216C31.3693 10.6051 31.2074 11.4659 31.2074 12.4545C31.2074 13.4659 31.3665 14.3466 31.6847 15.0966C32.0085 15.8466 32.4631 16.429 33.0483 16.8438C33.6392 17.2585 34.3324 17.4659 35.1278 17.4659C35.6506 17.4659 36.125 17.375 36.5511 17.1932C36.9773 17.0114 37.3381 16.75 37.6335 16.4091C37.929 16.0682 38.1392 15.6591 38.2642 15.1818H40.2756C40.1619 15.9545 39.8807 16.6506 39.4318 17.2699C38.9886 17.8835 38.4006 18.3722 37.6676 18.7358C36.9403 19.0938 36.0938 19.2727 35.1278 19.2727ZM34.1392 4.13636L36.2188 0.181818H38.571L35.9119 4.13636H34.1392ZM48.5341 19.2727C47.3523 19.2727 46.3153 18.9915 45.4233 18.429C44.5369 17.8665 43.8438 17.0795 43.3438 16.0682C42.8494 15.0568 42.6023 13.875 42.6023 12.5227C42.6023 11.1591 42.8494 9.96875 43.3438 8.9517C43.8438 7.93466 44.5369 7.14489 45.4233 6.58239C46.3153 6.01989 47.3523 5.73864 48.5341 5.73864C49.7159 5.73864 50.75 6.01989 51.6364 6.58239C52.5284 7.14489 53.2216 7.93466 53.7159 8.9517C54.2159 9.96875 54.4659 11.1591 54.4659 12.5227C54.4659 13.875 54.2159 15.0568 53.7159 16.0682C53.2216 17.0795 52.5284 17.8665 51.6364 18.429C50.75 18.9915 49.7159 19.2727 48.5341 19.2727ZM48.5341 17.4659C49.4318 17.4659 50.1705 17.2358 50.75 16.7756C51.3295 16.3153 51.7585 15.7102 52.0369 14.9602C52.3153 14.2102 52.4545 13.3977 52.4545 12.5227C52.4545 11.6477 52.3153 10.8324 52.0369 10.0767C51.7585 9.32102 51.3295 8.71023 50.75 8.24432C50.1705 7.77841 49.4318 7.54545 48.5341 7.54545C47.6364 7.54545 46.8977 7.77841 46.3182 8.24432C45.7386 8.71023 45.3097 9.32102 45.0312 10.0767C44.7528 10.8324 44.6136 11.6477 44.6136 12.5227C44.6136 13.3977 44.7528 14.2102 45.0312 14.9602C45.3097 15.7102 45.7386 16.3153 46.3182 16.7756C46.8977 17.2358 47.6364 17.4659 48.5341 17.4659ZM57.8089 19V1.54545H59.9226V9.31818H69.2294V1.54545H71.343V19H69.2294V11.1932H59.9226V19H57.8089ZM80.62 19.2727C79.4382 19.2727 78.4013 18.9915 77.5092 18.429C76.6229 17.8665 75.9297 17.0795 75.4297 16.0682C74.9354 15.0568 74.6882 13.875 74.6882 12.5227C74.6882 11.1591 74.9354 9.96875 75.4297 8.9517C75.9297 7.93466 76.6229 7.14489 77.5092 6.58239C78.4013 6.01989 79.4382 5.73864 80.62 5.73864C81.8018 5.73864 82.8359 6.01989 83.7223 6.58239C84.6143 7.14489 85.3075 7.93466 85.8018 8.9517C86.3018 9.96875 86.5518 11.1591 86.5518 12.5227C86.5518 13.875 86.3018 15.0568 85.8018 16.0682C85.3075 17.0795 84.6143 17.8665 83.7223 18.429C82.8359 18.9915 81.8018 19.2727 80.62 19.2727ZM80.62 17.4659C81.5178 17.4659 82.2564 17.2358 82.8359 16.7756C83.4155 16.3153 83.8445 15.7102 84.1229 14.9602C84.4013 14.2102 84.5405 13.3977 84.5405 12.5227C84.5405 11.6477 84.4013 10.8324 84.1229 10.0767C83.8445 9.32102 83.4155 8.71023 82.8359 8.24432C82.2564 7.77841 81.5178 7.54545 80.62 7.54545C79.7223 7.54545 78.9837 7.77841 78.4041 8.24432C77.8246 8.71023 77.3956 9.32102 77.1172 10.0767C76.8388 10.8324 76.6996 11.6477 76.6996 12.5227C76.6996 13.3977 76.8388 14.2102 77.1172 14.9602C77.3956 15.7102 77.8246 16.3153 78.4041 16.7756C78.9837 17.2358 79.7223 17.4659 80.62 17.4659ZM95.3153 5.90909V7.61364H88.5312V5.90909H95.3153ZM90.5085 2.77273H92.5199V15.25C92.5199 15.8182 92.6023 16.2443 92.767 16.5284C92.9375 16.8068 93.1534 16.9943 93.4148 17.0909C93.6818 17.1818 93.9631 17.2273 94.2585 17.2273C94.4801 17.2273 94.6619 17.2159 94.804 17.1932C94.946 17.1648 95.0597 17.142 95.1449 17.125L95.554 18.9318C95.4176 18.983 95.2273 19.0341 94.983 19.0852C94.7386 19.142 94.429 19.1705 94.054 19.1705C93.4858 19.1705 92.929 19.0483 92.3835 18.804C91.8438 18.5597 91.3949 18.1875 91.0369 17.6875C90.6847 17.1875 90.5085 16.5568 90.5085 15.7955V2.77273ZM103.689 19.2727C102.428 19.2727 101.339 18.9943 100.425 18.4375C99.5156 17.875 98.8139 17.0909 98.3196 16.0852C97.831 15.0739 97.5866 13.8977 97.5866 12.5568C97.5866 11.2159 97.831 10.0341 98.3196 9.01136C98.8139 7.98295 99.5014 7.18182 100.382 6.60795C101.268 6.02841 102.303 5.73864 103.484 5.73864C104.166 5.73864 104.839 5.85227 105.504 6.07954C106.169 6.30682 106.774 6.67614 107.32 7.1875C107.865 7.69318 108.3 8.36364 108.624 9.19886C108.947 10.0341 109.109 11.0625 109.109 12.2841V13.1364H99.0185V11.3977H107.064C107.064 10.6591 106.916 10 106.621 9.42045C106.331 8.84091 105.916 8.38352 105.376 8.0483C104.842 7.71307 104.212 7.54545 103.484 7.54545C102.683 7.54545 101.99 7.74432 101.405 8.14205C100.825 8.53409 100.379 9.04545 100.067 9.67614C99.7543 10.3068 99.598 10.983 99.598 11.7045V12.8636C99.598 13.8523 99.7685 14.6903 100.109 15.3778C100.456 16.0597 100.936 16.5795 101.55 16.9375C102.163 17.2898 102.876 17.4659 103.689 17.4659C104.217 17.4659 104.695 17.392 105.121 17.2443C105.553 17.0909 105.925 16.8636 106.237 16.5625C106.55 16.2557 106.791 15.875 106.962 15.4205L108.905 15.9659C108.7 16.625 108.357 17.2045 107.874 17.7045C107.391 18.1989 106.794 18.5852 106.084 18.8636C105.374 19.1364 104.575 19.2727 103.689 19.2727ZM114.18 1.54545V19H112.169V1.54545H114.18Z" fill="black"/>
</svg>
