<svg width="30" height="19" viewBox="0 0 30 19" fill="none" xmlns="http://www.w3.org/2000/svg">
<path d="M29.3855 0H0.614487C0.275022 0 0 0.269399 0 0.601973V18.398C0 18.7306 0.275022 19 0.614487 19H29.3855C29.7247 19 30 18.7306 30 18.398V0.601973C30 0.269399 29.7247 0 29.3855 0ZM28.771 17.796H1.22897V1.20399H28.771V17.796V17.796Z" fill="white"/>
<path d="M14.9998 16.3636C15.3393 16.3636 15.6143 16.0941 15.6143 15.7616V2.92806C15.6143 2.59612 15.3393 2.32605 14.9998 2.32605C14.6607 2.32605 14.3854 2.59612 14.3854 2.92806V15.7616C14.3854 16.0942 14.6607 16.3636 14.9998 16.3636Z" fill="white"/>
<path d="M3.16706 4.00102H6.71879C7.05826 4.00102 7.33328 3.73158 7.33328 3.39901C7.33328 3.06711 7.05826 2.797 6.71879 2.797H3.16706C2.82792 2.797 2.55257 3.06711 2.55257 3.39901C2.55257 3.73162 2.82792 4.00102 3.16706 4.00102Z" fill="white"/>
<path d="M3.16706 6.40904H8.82624C9.16571 6.40904 9.44073 6.1396 9.44073 5.80703C9.44073 5.47513 9.16571 5.20502 8.82624 5.20502H3.16706C2.82792 5.20502 2.55257 5.47513 2.55257 5.80703C2.55257 6.1396 2.82792 6.40904 3.16706 6.40904Z" fill="white"/>
<path d="M3.16706 8.81706H12.1112C12.4507 8.81706 12.7257 8.54762 12.7257 8.21505C12.7257 7.88315 12.4507 7.61304 12.1112 7.61304H3.16706C2.82792 7.61304 2.55257 7.88315 2.55257 8.21505C2.55257 8.54762 2.82792 8.81706 3.16706 8.81706Z" fill="white"/>
<path d="M3.16706 11.225H12.1112C12.4507 11.225 12.7257 10.9556 12.7257 10.623C12.7257 10.2911 12.4507 10.021 12.1112 10.021H3.16706C2.82792 10.021 2.55257 10.2911 2.55257 10.623C2.55257 10.9556 2.82792 11.225 3.16706 11.225Z" fill="white"/>
<path d="M3.16706 13.633H12.1112C12.4507 13.633 12.7257 13.3636 12.7257 13.031C12.7257 12.6991 12.4507 12.429 12.1112 12.429H3.16706C2.82792 12.429 2.55257 12.6991 2.55257 13.031C2.55257 13.3636 2.82792 13.633 3.16706 13.633Z" fill="white"/>
<path d="M12.1558 14.837H10.2956C9.95643 14.837 9.68109 15.1071 9.68109 15.439C9.68109 15.7716 9.95643 16.041 10.2956 16.041H12.1558C12.4949 16.041 12.7703 15.7716 12.7703 15.439C12.7703 15.1071 12.4949 14.837 12.1558 14.837Z" fill="white"/>
<path d="M23.7499 7.68495H27.6124C27.9518 7.68495 28.2268 7.41551 28.2268 7.08294V2.61092C28.2268 2.27898 27.9518 2.00891 27.6124 2.00891H23.7499C23.4108 2.00891 23.1354 2.27898 23.1354 2.61092V7.08294C23.1354 7.41551 23.4109 7.68495 23.7499 7.68495ZM24.3644 3.2129H26.9979V6.48096H24.3644V3.2129Z" fill="white"/>
<path d="M18.4138 4.68363C18.4391 4.68497 18.4652 4.68568 18.4919 4.68568C18.8582 4.68568 19.3732 4.57078 19.8831 4.07156C20.071 3.88746 20.3525 3.67985 20.6316 3.73427C20.8277 3.77326 21.0157 3.9466 21.1104 4.17507C21.2379 4.48346 21.5962 4.63126 21.9107 4.5063C22.2255 4.38133 22.3763 4.02992 22.2488 3.7222C21.9957 3.11144 21.4824 2.67473 20.8755 2.55447C20.5079 2.48188 19.7785 2.47115 19.0142 3.22029C18.7368 3.49171 18.538 3.48566 18.4745 3.48166C18.1669 3.47026 17.8631 3.19745 17.7713 3.09264C17.5539 2.84002 17.1684 2.80574 16.9085 3.01739C16.6472 3.23039 16.6116 3.60931 16.8286 3.86533C16.8961 3.94458 17.5133 4.64333 18.4138 4.68363Z" fill="white"/>
<path d="M18.5653 6.74699C19.0111 6.74699 19.4713 6.59309 19.8831 6.19002C20.071 6.00592 20.3518 5.79831 20.6316 5.85273C20.8277 5.89168 21.0157 6.06438 21.1103 6.29349C21.2378 6.6012 21.5962 6.74968 21.9107 6.62408C22.2254 6.49912 22.3763 6.14838 22.2487 5.83999C21.9957 5.2299 21.482 4.79323 20.8754 4.67293C20.5078 4.59971 19.7785 4.59029 19.0142 5.33875C18.5043 5.83932 17.8541 5.28366 17.728 5.16542C17.4848 4.9356 17.0971 4.94099 16.8611 5.17817C16.6242 5.41669 16.6293 5.79764 16.8721 6.02943C17.2599 6.40028 17.896 6.74699 18.5653 6.74699Z" fill="white"/>
</svg>
