<svg width="50" height="50" viewBox="0 0 50 50" fill="none" xmlns="http://www.w3.org/2000/svg">
<path d="M29.3385 31.4644V34.2483V34.6021H39.4155V34.2483V31.4644H29.3385Z" fill="black"/>
<path d="M39.4155 36.6848H29.3385V45.6784H39.4155V36.6848Z" fill="black"/>
<path d="M44.5364 15.9565H41.3802V13.0846C41.3802 12.6776 41.0502 12.3476 40.6432 12.3476H35.9084V6.52062H38.6813C39.714 6.52062 40.5511 5.68351 40.5511 4.65079V4.32159H28.31V4.65079C28.31 5.68351 29.1471 6.52062 30.1798 6.52062H32.9525V12.3476H28.2178C27.8107 12.3476 27.4807 12.6776 27.4807 13.0846V15.9565H24.3244C23.8029 15.9565 23.4343 16.467 23.5984 16.9619L25.7307 23.3937C25.9674 24.1079 26.6352 24.5901 27.3876 24.5901H29.3385V29.3818H39.4155V24.5901H41.4731C42.2256 24.5901 42.8934 24.1079 43.1302 23.3937L45.2624 16.9619C45.4266 16.4669 45.058 15.9565 44.5364 15.9565ZM28.3694 22.1337C28.1459 22.1337 27.9476 21.9904 27.8773 21.7782L26.9875 19.0945C26.8763 18.7588 27.1262 18.4127 27.4798 18.4127H32.5989C32.8854 18.4127 33.1176 18.6448 33.1176 18.9314V21.6151C33.1176 21.9015 32.8854 22.1337 32.5989 22.1337H28.3694V22.1337ZM41.8733 19.0946L40.9837 21.7783C40.9134 21.9905 40.7149 22.1338 40.4915 22.1338H36.2619C35.9755 22.1338 35.7433 21.9016 35.7433 21.6151V18.9315C35.7433 18.645 35.9755 18.4128 36.2619 18.4128H41.3811C41.7347 18.4128 41.9847 18.7589 41.8733 19.0946Z" fill="black"/>
<path d="M11.9395 37.3526C11.9989 37.7055 12.179 38.0269 12.449 38.2619L13.3768 39.0695C13.6269 39.2871 14.0172 39.1113 14.0198 38.7797L14.0814 31.1181L19.2771 34.8718C20.4628 35.7285 22.0538 35.7661 23.2788 34.9666L25.2801 33.6601C25.5074 33.5116 25.5496 33.1958 25.3689 32.9931L25.1486 32.7457C24.7441 32.2915 24.1308 32.0833 23.5334 32.1972L21.2453 32.6339L10.6418 23.6266C9.6086 22.7489 8.29942 22.2344 6.94385 22.2536C6.5127 22.2598 6.06113 22.3168 5.61289 22.4535C4.80567 22.6996 4.45186 23.6167 4.88399 24.3415C4.89033 24.3523 4.89688 24.363 4.90352 24.3738C4.98858 24.5122 5.10332 24.6316 5.23506 24.7268L10.4464 28.4918L11.9395 37.3526Z" fill="black"/>
<path d="M14.9827 25.8045L16.7107 27.3438C17.0297 27.6278 17.4472 27.7756 17.8737 27.7556L23.4341 27.4943C23.7038 27.4336 23.7783 27.0846 23.5568 26.9191L22.7353 26.3054C22.4963 26.1267 22.2025 26.0366 21.9045 26.0504L15.2004 25.3152C14.9282 25.2853 14.7783 25.6225 14.9827 25.8045Z" fill="black"/>
</svg>
