<svg width="40" height="50" viewBox="0 0 40 50" fill="none" xmlns="http://www.w3.org/2000/svg">
<path d="M33.5492 44.5168L4.21624 49.3372C1.98765 49.6987 0 48.0116 0 45.7822V8.42433C0 6.67695 1.26487 5.17058 3.0116 4.86931L32.3446 0.048938C34.5731 -0.31259 36.5608 1.37454 36.5608 3.60396V40.9618C36.5608 42.7092 35.2959 44.2156 33.5492 44.5168Z" fill="#888888"/>
<path d="M36.5608 50H3.07183C1.38534 50 0 48.6142 0 46.927V8.36406C0 6.67693 1.38534 5.29108 3.07183 5.29108H36.5006C38.1871 5.29108 39.5724 6.67693 39.5724 8.36406V46.927C39.5724 48.6744 38.2473 50 36.5608 50Z" fill="black"/>
<path d="M19.8163 32.9479V44.5771C19.8163 45.2399 19.5754 45.8424 19.1538 46.2642C18.8526 46.6257 18.3707 46.927 17.8889 47.0475C17.648 47.1078 17.407 47.168 17.1661 47.168H5.96296C5.72203 47.168 5.48111 47.1078 5.24018 47.0475C4.75832 46.927 4.3367 46.6257 3.97531 46.2642C3.55368 45.7822 3.31276 45.2399 3.31276 44.5771V32.9479C3.31276 31.5018 4.45716 30.357 5.90273 30.357H17.1661C18.6719 30.357 19.8163 31.5018 19.8163 32.9479Z" fill="white"/>
<path d="M11.5645 37.5876C13.128 37.5876 14.3954 36.3197 14.3954 34.7556C14.3954 33.1916 13.128 31.9236 11.5645 31.9236C10.0011 31.9236 8.73363 33.1916 8.73363 34.7556C8.73363 36.3197 10.0011 37.5876 11.5645 37.5876Z" fill="black"/>
<path d="M29.9353 44.3963C33.0622 44.3963 35.5971 41.8605 35.5971 38.7324C35.5971 35.6043 33.0622 33.0685 29.9353 33.0685C26.8084 33.0685 24.2735 35.6043 24.2735 38.7324C24.2735 41.8605 26.8084 44.3963 29.9353 44.3963Z" fill="white"/>
<path d="M11.5645 38.0696C9.03479 38.0696 7.04713 40.1183 7.04713 42.5887V47.1078H16.0819V42.5887C16.1422 40.1183 14.0943 38.0696 11.5645 38.0696Z" fill="black"/>
<path d="M29.092 41.0823C28.8511 41.0823 28.6102 40.9618 28.4295 40.7811L26.6828 38.8529C26.3214 38.4914 26.3816 37.8888 26.743 37.5876C27.1044 37.2863 27.7067 37.2863 28.0079 37.6478L29.1523 38.9132L31.9229 36.6235C32.2843 36.3222 32.8866 36.3825 33.1878 36.744C33.489 37.1055 33.4287 37.7081 33.0673 38.0094L29.6341 40.8413C29.5137 41.0221 29.333 41.0823 29.092 41.0823Z" fill="black"/>
<mask id="path-8-inside-1_26_19" fill="white">
<path d="M36.3199 24.9338H3.31276C3.13206 24.9338 2.95137 24.7531 2.95137 24.5724C2.95137 24.3917 3.13206 24.211 3.31276 24.211H36.3199C36.5006 24.211 36.6813 24.3917 36.6813 24.5724C36.6813 24.7531 36.5006 24.9338 36.3199 24.9338Z"/>
</mask>
<path d="M36.3199 24.9338H3.31276C3.13206 24.9338 2.95137 24.7531 2.95137 24.5724C2.95137 24.3917 3.13206 24.211 3.31276 24.211H36.3199C36.5006 24.211 36.6813 24.3917 36.6813 24.5724C36.6813 24.7531 36.5006 24.9338 36.3199 24.9338Z" fill="#888888"/>
<path d="M36.3199 23.9338H3.31276V25.9338H36.3199V23.9338ZM3.31276 23.9338C3.54764 23.9338 3.69883 24.0412 3.77141 24.1137C3.844 24.1863 3.95137 24.3375 3.95137 24.5724H1.95137C1.95137 24.988 2.14909 25.3198 2.35719 25.528C2.5653 25.7361 2.89717 25.9338 3.31276 25.9338V23.9338ZM3.95137 24.5724C3.95137 24.8073 3.84399 24.9585 3.77141 25.031C3.69882 25.1036 3.54764 25.211 3.31276 25.211V23.211C2.89718 23.211 2.5653 23.4087 2.35719 23.6168C2.14909 23.8249 1.95137 24.1568 1.95137 24.5724H3.95137ZM3.31276 25.211H36.3199V23.211H3.31276V25.211ZM36.3199 25.211C36.085 25.211 35.9338 25.1036 35.8612 25.031C35.7886 24.9585 35.6813 24.8073 35.6813 24.5724H37.6813C37.6813 24.1568 37.4835 23.8249 37.2754 23.6168C37.0673 23.4087 36.7354 23.211 36.3199 23.211V25.211ZM35.6813 24.5724C35.6813 24.3375 35.7886 24.1863 35.8612 24.1137C35.9338 24.0412 36.085 23.9338 36.3199 23.9338V25.9338C36.7355 25.9338 37.0673 25.7361 37.2754 25.528C37.4835 25.3198 37.6813 24.988 37.6813 24.5724H35.6813Z" fill="white" mask="url(#path-8-inside-1_26_19)"/>
<path opacity="0.88" d="M10.6008 17.6433L7.52899 10.714H6.56528L10.119 18.7279H10.9622L14.5159 10.714H13.6727L10.6008 17.6433Z" fill="white"/>
<path opacity="0.8" d="M16.5036 10.714H15.6603V18.7279H16.5036V10.714Z" fill="white"/>
<path d="M23.37 14.9318C23.0688 14.7511 22.7677 14.6306 22.4063 14.5703C22.0449 14.4498 21.6835 14.3895 21.3823 14.269C21.0209 14.2088 20.7198 14.0883 20.4186 13.9678C20.1175 13.8473 19.8765 13.7267 19.6958 13.546C19.5152 13.3652 19.4549 13.1242 19.4549 12.7627C19.4549 12.4614 19.5152 12.2204 19.6958 12.0396C19.8163 11.7986 20.0572 11.6781 20.3584 11.4973C20.6596 11.3768 21.0812 11.3166 21.563 11.3166C21.9244 11.3166 22.2858 11.3768 22.7074 11.4973C23.0688 11.6178 23.4302 11.7986 23.7916 11.9794L24.0928 11.3166C23.7916 11.0755 23.37 10.8948 22.9484 10.7743C22.5267 10.6538 22.0449 10.5935 21.6233 10.5935C20.9607 10.5935 20.3584 10.714 19.9368 10.8948C19.5152 11.0755 19.1538 11.3768 18.9731 11.6781C18.7924 12.0396 18.6719 12.4011 18.6719 12.7627C18.6719 13.1845 18.7321 13.546 18.9128 13.787C19.0935 14.028 19.3345 14.269 19.6356 14.4498C19.9368 14.6306 20.2379 14.7511 20.5993 14.8113C20.9607 14.9318 21.3221 14.9921 21.6233 15.0523C21.9847 15.1126 22.2858 15.2331 22.587 15.3536C22.8881 15.4741 23.1291 15.5946 23.3098 15.7754C23.4905 15.9562 23.5507 16.1972 23.5507 16.5587C23.5507 16.7997 23.4905 17.0408 23.3098 17.2818C23.1893 17.5228 22.9484 17.6433 22.587 17.7638C22.2858 17.8843 21.8642 17.9446 21.3823 17.9446C20.8403 17.9446 20.3584 17.8241 19.8765 17.6433C19.3947 17.4625 19.0333 17.2215 18.7321 16.9805L18.3707 17.6433C18.6719 17.9446 19.0935 18.1856 19.6356 18.3664C20.1777 18.5471 20.78 18.6676 21.3221 18.6676C21.9847 18.6676 22.587 18.5471 23.0086 18.3664C23.4302 18.1856 23.7916 17.8843 23.9723 17.583C24.2132 17.2215 24.2735 16.9202 24.2735 16.4985C24.2735 16.0767 24.2132 15.7152 24.0325 15.4741C23.8519 15.2934 23.6109 15.1126 23.37 14.9318Z" fill="white"/>
<path d="M32.1639 18.7279H33.0673L29.3932 10.714H28.5499L24.8758 18.7279H25.7793L26.743 16.5587H31.2002L32.1639 18.7279ZM27.0441 15.8959L28.9716 11.5576L30.899 15.8959H27.0441Z" fill="white"/>
</svg>
