<svg width="30" height="30" viewBox="0 0 30 30" fill="none" xmlns="http://www.w3.org/2000/svg">
<g clip-path="url(#clip0_29_9)">
<path d="M15 30C6.717 30 0 23.283 0 15C0 6.717 6.717 0 15 0C23.283 0 30 6.717 30 15C30 23.283 23.283 30 15 30Z" fill="#25D366"/>
<path fill-rule="evenodd" clip-rule="evenodd" d="M22.017 8.01602C20.157 6.15302 17.679 5.12702 15.042 5.12402C9.609 5.12402 5.184 9.54602 5.184 14.982C5.184 16.719 5.637 18.417 6.501 19.911L5.103 25.02L10.329 23.649C11.769 24.435 13.389 24.849 15.039 24.849H15.042C20.475 24.849 24.897 20.427 24.9 14.991C24.903 12.357 23.88 9.87902 22.017 8.01602ZM15.045 23.184H15.042C13.572 23.184 12.129 22.788 10.872 22.041L10.572 21.864L7.47 22.677L8.298 19.653L8.103 19.344C7.284 18.039 6.849 16.533 6.849 14.982C6.852 10.464 10.527 6.78902 15.048 6.78902C17.238 6.78902 19.293 7.64402 20.841 9.19202C22.389 10.74 23.241 12.801 23.238 14.988C23.238 19.509 19.56 23.184 15.045 23.184ZM19.539 17.046C19.293 16.923 18.081 16.326 17.856 16.245C17.631 16.164 17.466 16.122 17.301 16.368C17.136 16.614 16.665 17.169 16.521 17.334C16.377 17.499 16.233 17.52 15.987 17.397C15.741 17.274 14.946 17.013 14.007 16.173C13.275 15.519 12.78 14.712 12.636 14.466C12.492 14.22 12.621 14.085 12.744 13.962C12.855 13.851 12.99 13.674 13.113 13.53C13.236 13.386 13.278 13.284 13.359 13.119C13.44 12.954 13.401 12.81 13.338 12.687C13.275 12.564 12.783 11.352 12.579 10.857C12.378 10.377 12.177 10.443 12.024 10.434C11.88 10.428 11.715 10.425 11.553 10.425C11.388 10.425 11.121 10.488 10.896 10.734C10.671 10.98 10.035 11.577 10.035 12.789C10.035 14.001 10.917 15.174 11.04 15.336C11.163 15.501 12.777 17.988 15.249 19.056C15.837 19.311 16.296 19.461 16.653 19.575C17.244 19.764 17.781 19.737 18.204 19.674C18.678 19.602 19.662 19.077 19.866 18.504C20.07 17.928 20.07 17.436 20.01 17.334C19.95 17.232 19.785 17.172 19.539 17.046Z" fill="white"/>
</g>
<defs>
<clipPath id="clip0_29_9">
<rect width="30" height="30" fill="white"/>
</clipPath>
</defs>
</svg>
